<svg xmlns="http://www.w3.org/2000/svg" width="29.239" height="29.239">
    <g data-name="Group 1399" transform="translate(-1054.989 -418.731)">
        <circle data-name="Ellipse 424" cx="14.619" cy="14.619" r="14.619" transform="translate(1054.989 418.731)" style="fill:#6793b7"/>
        <path data-name="Icon awesome-comments" d="M1067.262 423.953c0-2.477-2.614-4.492-5.849-4.492s-5.849 2.015-5.849 4.492a3.863 3.863 0 0 0 1.071 2.6 6.311 6.311 0 0 1-1.013 1.523.229.229 0 0 0-.039.246.223.223 0 0 0 .207.138 5.078 5.078 0 0 0 2.5-.7 7.157 7.157 0 0 0 3.126.7c3.221-.005 5.846-2.02 5.846-4.507zm4.187 6.939a3.76 3.76 0 0 0 1.063-2.585c0-1.877-1.5-3.489-3.637-4.158a3.611 3.611 0 0 1 .039.561c0 2.979-3.027 5.4-6.743 5.4-.3 0-.6-.02-.894-.049a6.084 6.084 0 0 0 5.386 2.752 7.1 7.1 0 0 0 3.136-.708 4.932 4.932 0 0 0 2.487.708.23.23 0 0 0 .167-.383 5.9 5.9 0 0 1-1.005-1.537z" transform="translate(5.066 6.448)" style="fill:#fff"/>
    </g>
</svg>
