<?xml version="1.0" encoding="utf-8"?>
<!-- Generator: Adobe Illustrator 24.1.1, SVG Export Plug-In . SVG Version: 6.00 Build 0)  -->
<svg version="1.1" id="Objects" xmlns="http://www.w3.org/2000/svg" xmlns:xlink="http://www.w3.org/1999/xlink" x="0px" y="0px"
	 viewBox="0 0 500.9 197.1" style="enable-background:new 0 0 500.9 197.1;" xml:space="preserve">
<style type="text/css">
	.st0{fill:#273947;}
	.st1{fill:#009E87;}
</style>
<g>
	<g>
		<g>
			<path class="st0" d="M207.5,72.5V41.4h-11.6v-4.2h27.9v4.2h-11.6v31.1H207.5z"/>
			<g>
				<path class="st0" d="M234.9,72.5V37.2h15.7c3.1,0,5.5,0.3,7.2,1c1.6,0.6,2.9,1.8,3.9,3.4c1,1.6,1.5,3.4,1.5,5.3
					c0,2.5-0.8,4.6-2.4,6.3c-1.6,1.7-4.1,2.8-7.5,3.3c1.2,0.6,2.2,1.2,2.8,1.8c1.4,1.3,2.7,2.8,3.9,4.7l6.1,9.6h-5.8l-4.7-7.3
					c-1.4-2.1-2.5-3.7-3.4-4.9c-0.9-1.1-1.7-1.9-2.4-2.4c-0.7-0.5-1.4-0.8-2.1-0.9c-0.5-0.1-1.4-0.2-2.6-0.2h-5.4v15.7H234.9z
					 M239.6,52.8h10c2.1,0,3.8-0.2,5-0.7c1.2-0.4,2.1-1.1,2.8-2.1c0.6-1,0.9-2,0.9-3.2c0-1.7-0.6-3-1.8-4.1
					c-1.2-1.1-3.1-1.6-5.8-1.6h-11.2V52.8z"/>
				<path class="st0" d="M274.4,72.5l13.6-35.3h5.1l14.4,35.3h-5.3l-4-10.7h-14.9l-3.8,10.7H274.4z M284.5,58.1h12.1
					c0,0-5.7-15.2-6.3-17.2C289.8,43.2,284.5,58.1,284.5,58.1z"/>
				<path class="st0" d="M324.2,72.5l-13.6-35.3h5.1c0,0,10.5,29.6,11,31.4c0.5-1.9,11.5-31.4,11.5-31.4h4.8l-13.8,35.3H324.2z"/>
			</g>
			<path class="st0" d="M353.9,72.5V37.2h4.7v35.3H353.9z"/>
			<path class="st0" d="M369.7,61.2l4.4-0.4c0.2,1.8,0.7,3.2,1.4,4.3c0.8,1.1,1.9,2,3.5,2.7c1.6,0.7,3.4,1,5.4,1
				c1.8,0,3.3-0.3,4.7-0.8c1.4-0.5,2.4-1.3,3-2.2c0.7-0.9,1-1.9,1-3c0-1.1-0.3-2.1-1-2.9c-0.7-0.8-1.7-1.5-3.2-2.1
				c-0.9-0.4-3-0.9-6.2-1.7c-3.2-0.8-5.5-1.5-6.8-2.2c-1.7-0.9-2.9-2-3.8-3.3c-0.8-1.3-1.2-2.8-1.2-4.4c0-1.8,0.5-3.5,1.5-5
				c1-1.6,2.5-2.7,4.4-3.5c1.9-0.8,4.1-1.2,6.4-1.2c2.6,0,4.9,0.4,6.9,1.3c2,0.8,3.5,2.1,4.6,3.7c1.1,1.6,1.6,3.5,1.7,5.6l-4.5,0.3
				c-0.2-2.2-1-3.9-2.4-5c-1.4-1.1-3.4-1.7-6.1-1.7c-2.8,0-4.9,0.5-6.1,1.6c-1.3,1-1.9,2.3-1.9,3.7c0,1.3,0.5,2.3,1.4,3.1
				c0.9,0.8,3.2,1.7,7,2.5c3.8,0.9,6.4,1.6,7.8,2.2c2.1,0.9,3.6,2.1,4.6,3.6c1,1.5,1.5,3.1,1.5,5c0,1.9-0.5,3.6-1.6,5.3
				c-1.1,1.7-2.6,2.9-4.6,3.9c-2,0.9-4.3,1.4-6.8,1.4c-3.2,0-5.8-0.5-8-1.4c-2.1-0.9-3.8-2.3-5.1-4.2
				C370.4,65.6,369.8,63.5,369.7,61.2z"/>
		</g>
		<g>
			<g>
				<path class="st1" d="M222.4,103.7l4.7,1.2c-1,3.8-2.7,6.8-5.3,8.8c-2.5,2-5.7,3-9.3,3c-3.8,0-6.9-0.8-9.3-2.3
					c-2.4-1.5-4.2-3.8-5.4-6.7c-1.2-2.9-1.9-6.1-1.9-9.5c0-3.7,0.7-6.9,2.1-9.6c1.4-2.7,3.4-4.8,6-6.2c2.6-1.4,5.4-2.1,8.5-2.1
					c3.5,0,6.5,0.9,8.9,2.7c2.4,1.8,4.1,4.3,5,7.6l-4.6,1.1c-0.8-2.6-2-4.4-3.6-5.6c-1.6-1.2-3.5-1.8-5.9-1.8c-2.7,0-5,0.7-6.8,2
					c-1.8,1.3-3.1,3-3.8,5.2c-0.7,2.2-1.1,4.5-1.1,6.8c0,3,0.4,5.6,1.3,7.9c0.9,2.2,2.2,3.9,4.1,5c1.8,1.1,3.8,1.7,6,1.7
					c2.6,0,4.8-0.8,6.6-2.3C220.5,108.9,221.8,106.6,222.4,103.7z"/>
				<path class="st1" d="M234.2,116.1l13.6-35.3h5.1l14.4,35.3H262l-4-10.7H243l-3.8,10.7H234.2z M244.3,101.6h12.1
					c0,0-5.7-15.2-6.3-17.2C249.7,86.7,244.3,101.6,244.3,101.6z"/>
				<path class="st1" d="M277.1,116.1V80.8h13.3c2.3,0,4.1,0.1,5.4,0.3c1.7,0.3,3.2,0.8,4.4,1.7c1.2,0.8,2.1,1.9,2.8,3.4
					c0.7,1.5,1.1,3.1,1.1,4.8c0,3-1,5.5-2.9,7.6c-1.9,2.1-5.4,3.1-10.4,3.1h-9.1v14.3H277.1z M281.8,97.6h9.1c3,0,5.2-0.6,6.4-1.7
					c1.3-1.1,1.9-2.7,1.9-4.7c0-1.5-0.4-2.7-1.1-3.8c-0.7-1.1-1.7-1.7-3-2.1c-0.8-0.2-2.2-0.3-4.4-0.3h-9V97.6z"/>
				<path class="st1" d="M314.7,116.1V80.8h4.7v35.3H314.7z"/>
				<path class="st1" d="M341.7,116.1V84.9h-11.6v-4.2H358v4.2h-11.6v31.1H341.7z"/>
				<path class="st1" d="M360.7,116.1l13.6-35.3h5.1l14.4,35.3h-5.3l-4-10.7h-14.9l-3.9,10.7H360.7z M370.8,101.6h12.1
					c0,0-5.7-15.2-6.3-17.2C376.2,86.7,370.8,101.6,370.8,101.6z"/>
				<path class="st1" d="M404.4,116.1V80.8h4.7v31.1h17.4v4.2H404.4z"/>
			</g>
		</g>
		<g>
			<path class="st0" d="M195.9,159.6v-35.3h13.3c2.3,0,4.1,0.1,5.4,0.3c1.7,0.3,3.2,0.8,4.4,1.7c1.2,0.8,2.1,1.9,2.8,3.4
				c0.7,1.5,1.1,3.1,1.1,4.8c0,3-1,5.5-2.9,7.6c-1.9,2.1-5.4,3.1-10.4,3.1h-9.1v14.3H195.9z M200.6,141.1h9.1c3,0,5.2-0.6,6.4-1.7
				c1.3-1.1,1.9-2.7,1.9-4.7c0-1.5-0.4-2.7-1.1-3.8c-0.7-1.1-1.7-1.7-3-2.1c-0.8-0.2-2.2-0.3-4.4-0.3h-9V141.1z"/>
			<path class="st0" d="M227.8,159.6l13.6-35.3h5.1l14.4,35.3h-5.3l-4-10.7h-14.9l-3.9,10.7H227.8z M237.9,145.2H250
				c0,0-5.7-15.2-6.3-17.2C243.3,130.3,237.9,145.2,237.9,145.2z"/>
			<path class="st0" d="M270.7,159.6v-35.3h15.7c3.1,0,5.5,0.3,7.2,1c1.6,0.6,2.9,1.8,3.9,3.4c1,1.6,1.5,3.4,1.5,5.3
				c0,2.5-0.8,4.6-2.4,6.3c-1.6,1.7-4.1,2.8-7.5,3.3c1.2,0.6,2.2,1.2,2.8,1.8c1.4,1.3,2.7,2.8,3.9,4.7l6.1,9.6h-5.8l-4.7-7.3
				c-1.4-2.1-2.5-3.7-3.4-4.9c-0.9-1.1-1.7-1.9-2.4-2.4c-0.7-0.4-1.4-0.8-2.1-0.9c-0.5-0.1-1.4-0.2-2.6-0.2h-5.4v15.7H270.7z
				 M275.3,139.9h10c2.1,0,3.8-0.2,5-0.7c1.2-0.4,2.1-1.1,2.8-2.1c0.6-1,0.9-2,0.9-3.2c0-1.7-0.6-3-1.8-4.1
				c-1.2-1.1-3.1-1.6-5.8-1.6h-11.2V139.9z"/>
			<path class="st0" d="M320.4,159.6v-31.1h-11.6v-4.2h27.9v4.2H325v31.1H320.4z"/>
			<path class="st0" d="M348.5,159.6v-35.3h4.8l18.6,27.7v-27.7h4.5v35.3h-4.8L353,131.9v27.7H348.5z"/>
			<path class="st0" d="M388.3,159.6v-35.3h25.4v4.2H393v10.8h19.4v4.2H393v12h21.6v4.2H388.3z"/>
			<path class="st0" d="M426.5,159.6v-35.3h15.7c3.1,0,5.5,0.3,7.2,1c1.6,0.6,2.9,1.8,3.9,3.4c1,1.6,1.5,3.4,1.5,5.3
				c0,2.5-0.8,4.6-2.4,6.3c-1.6,1.7-4.1,2.8-7.5,3.3c1.2,0.6,2.2,1.2,2.8,1.8c1.4,1.3,2.7,2.8,3.9,4.7l6.1,9.6h-5.8l-4.7-7.3
				c-1.4-2.1-2.5-3.7-3.4-4.9c-0.9-1.1-1.7-1.9-2.4-2.4c-0.7-0.4-1.4-0.8-2.1-0.9c-0.5-0.1-1.4-0.2-2.6-0.2h-5.4v15.7H426.5z
				 M431.1,139.9h10c2.1,0,3.8-0.2,5-0.7c1.2-0.4,2.1-1.1,2.8-2.1c0.6-1,0.9-2,0.9-3.2c0-1.7-0.6-3-1.8-4.1
				c-1.2-1.1-3.1-1.6-5.8-1.6h-11.2V139.9z"/>
			<path class="st0" d="M465.5,148.3l4.4-0.4c0.2,1.8,0.7,3.2,1.4,4.3c0.8,1.1,1.9,2,3.5,2.7c1.6,0.7,3.4,1,5.4,1
				c1.8,0,3.3-0.3,4.7-0.8c1.4-0.5,2.4-1.3,3-2.2c0.7-0.9,1-1.9,1-3c0-1.1-0.3-2.1-1-2.9c-0.7-0.8-1.7-1.5-3.2-2.1
				c-0.9-0.4-3-0.9-6.2-1.7c-3.2-0.8-5.5-1.5-6.8-2.2c-1.7-0.9-2.9-2-3.8-3.3c-0.8-1.3-1.2-2.8-1.2-4.4c0-1.8,0.5-3.5,1.5-5
				c1-1.6,2.5-2.7,4.4-3.5c1.9-0.8,4.1-1.2,6.4-1.2c2.6,0,4.9,0.4,6.9,1.3c2,0.8,3.5,2.1,4.6,3.7c1.1,1.6,1.6,3.5,1.7,5.6l-4.5,0.3
				c-0.2-2.2-1-3.9-2.4-5c-1.4-1.1-3.4-1.7-6.1-1.7c-2.8,0-4.9,0.5-6.1,1.6c-1.3,1-1.9,2.3-1.9,3.7c0,1.3,0.5,2.3,1.4,3.1
				c0.9,0.8,3.2,1.7,7,2.5c3.8,0.9,6.4,1.6,7.8,2.2c2.1,0.9,3.6,2.1,4.6,3.6c1,1.4,1.5,3.1,1.5,5c0,1.9-0.5,3.6-1.6,5.3
				c-1.1,1.7-2.6,2.9-4.6,3.9c-2,0.9-4.3,1.4-6.8,1.4c-3.2,0-5.8-0.5-8-1.4c-2.1-0.9-3.8-2.3-5.1-4.2
				C466.2,152.7,465.6,150.6,465.5,148.3z"/>
		</g>
	</g>
	<rect x="149.4" y="4.5" class="st0" width="4" height="187.9"/>
	<g>
		<path class="st0" d="M46.5,142.8v27.4h15v-29.5c-4.3,1.4-8.8,2.1-13.5,2.1C47.5,142.9,47,142.8,46.5,142.8z M3.9,26.6v15.3h42.6
			v50.7h17.9V41.9h42.6V26.6H3.9z M82.9,97.4H46.5v33.1c0.5,0,1,0,1.5,0c4.8,0,9.4-1.1,13.5-3v-15.6h0v-1.1H80
			c4.6,0,8.2,1.3,10.9,3.9c2.4,2.4,3.7,5.3,3.7,8.7c0,3.5-1.2,6.4-3.7,8.9c-2.6,2.6-6,4-10.2,4.1c-0.1,0-0.9,0-1.2,0
			c-3.9,3.3-8.3,6-13.1,7.9v5.4h15.8c7.9,0,14-2.7,18.6-8c4.1-4.8,6.1-10.7,6.1-17.7c0-7-2-13.1-6.1-18.2
			C96.3,100.2,90.3,97.4,82.9,97.4z"/>
		<g>
			<g>
				<path class="st1" d="M83.4,73.9c-4.6-7.1-11.3-12.7-19.1-16.2v14.1c1,0.7,1.9,1.4,2.8,2.1H83.4z M61.5,127.5
					c-4.1,1.9-8.7,3-13.5,3c-0.5,0-1,0-1.5,0c-16.8-0.8-30.3-14.7-30.3-31.7c0-17,13.4-30.9,30.3-31.7V54.7
					c-23.6,0.8-42.6,20.2-42.6,44c0,23.8,18.9,43.2,42.6,44c0.5,0,1,0,1.5,0c4.7,0,9.3-0.7,13.5-2.1c8.9-2.9,16.5-8.4,21.9-15.8
					H65.9C64.5,126,63,126.8,61.5,127.5z"/>
			</g>
		</g>
	</g>
</g>
</svg>
