<?xml version="1.0" encoding="utf-8"?>
<!-- Generator: Adobe Illustrator 24.1.1, SVG Export Plug-In . SVG Version: 6.00 Build 0)  -->
<svg version="1.1" id="Isolation_Mode" xmlns="http://www.w3.org/2000/svg" xmlns:xlink="http://www.w3.org/1999/xlink" x="0px"
	 y="0px" viewBox="0 0 77 54" style="enable-background:new 0 0 77 54;" xml:space="preserve">
<style type="text/css">
	.st0{fill:#C3C3C3;}
</style>
<g id="invisible">
	<path id="XMLID_264_" class="st0" d="M25.6,28.7c0-6.6,5.4-12,12-12c1.3,0,2.6,0.2,3.8,0.6l3.6-3.6C22.3,8.8,6.3,28.5,6.3,28.5
		s4.9,6.1,13.2,10.8l6.8-6.8C25.9,31.3,25.6,30,25.6,28.7z"/>
	<path id="XMLID_263_" class="st0" d="M56.5,18.2l-7.3,7.3c0.3,1,0.4,2.1,0.4,3.2c0,6.6-5.4,12-12,12c-1.1,0-2.2-0.2-3.2-0.4
		l-3.3,3.3c10.7,2.1,24.1-0.4,38.6-15.1C65.2,23.9,60.8,20.6,56.5,18.2z"/>
	<path id="XMLID_262_" class="st0" d="M37.7,33.4c2.6,0,4.7-2.1,4.7-4.7c0-0.2,0-0.4,0-0.6l14.1-14.1c0.2-0.2,0.2-0.6,0-0.8
		l-2.9-2.9c-0.2-0.2-0.6-0.2-0.8,0L38.8,24.2c-0.4-0.1-0.7-0.1-1.1-0.1c-2.6,0-4.7,2.1-4.7,4.7c0,0.4,0.1,0.8,0.1,1.1l-13,13
		c-0.2,0.2-0.2,0.6,0,0.8l2.9,2.9c0.2,0.2,0.6,0.2,0.8,0l13.2-13.2C37.3,33.3,37.5,33.4,37.7,33.4z"/>
</g>
</svg>
