<?xml version="1.0" encoding="utf-8"?>
<!-- Generator: Adobe Illustrator 24.1.1, SVG Export Plug-In . SVG Version: 6.00 Build 0)  -->
<svg version="1.1" id="Isolation_Mode" xmlns="http://www.w3.org/2000/svg" xmlns:xlink="http://www.w3.org/1999/xlink" x="0px"
	 y="0px" viewBox="0 0 77 54" style="enable-background:new 0 0 77 54;" xml:space="preserve">
<style type="text/css">
	.st0{fill:#C3C3C3;}
</style>
<g id="visible">
	<path id="XMLID_266_" class="st0" d="M7.3,29.2c0,0,28.5,35.5,63.4,0C35.8-5.7,7.3,29.2,7.3,29.2z M38.7,41.5c-6.6,0-12-5.4-12-12
		c0-6.6,5.4-12,12-12c6.6,0,12,5.4,12,12C50.7,36.1,45.3,41.5,38.7,41.5z"/>
	<path id="XMLID_265_" class="st0" d="M38.7,24.8c-2.6,0-4.7,2.1-4.7,4.7c0,2.6,2.1,4.7,4.7,4.7c2.6,0,4.7-2.1,4.7-4.7
		C43.3,26.9,41.2,24.8,38.7,24.8z"/>
</g>
</svg>
