<svg xmlns="http://www.w3.org/2000/svg" width="21.992" height="18.622" viewBox="0 0 21.992 18.622">
    <path fill="#b2d8f7" d="M4748.008 1196.676l-10.518 8.211a.46.46 0 0 0 .3.822h2.19a.472.472 0 0 1 .481.463v8.56a.471.471 0 0 0 .479.463h4.271a.472.472 0 0 0 .481-.461v-6.2a.473.473 0 0 1 .482-.464h4.272a.472.472 0 0 1 .481.464v6.194a.471.471 0 0 0 .479.463h4.271a.472.472 0 0 0 .481-.461v-8.562a.471.471 0 0 1 .481-.463h2.189a.46.46 0 0 0 .3-.822l-10.518-8.211a.492.492 0 0 0-.602.004z" transform="translate(-4737.313 -1196.573)"/>
</svg>
