<svg xmlns="http://www.w3.org/2000/svg" id="Search" width="24" height="24" viewBox="0 0 24 24">
    <path id="Rectangle_176" fill="none" d="M0 0H24V24H0z" data-name="Rectangle 176"/>
    <path id="Path_99" fill="#97b0c6" d="M23.554 21.48l-4.888-4.888a10.143 10.143 0 0 0 2.074-6.222A10.306 10.306 0 0 0 10.37 0 10.306 10.306 0 0 0 0 10.37a10.306 10.306 0 0 0 10.37 10.37 10.143 10.143 0 0 0 6.222-2.074l4.888 4.888zM2.963 10.37a7.335 7.335 0 0 1 7.407-7.407 7.335 7.335 0 0 1 7.407 7.407 7.335 7.335 0 0 1-7.407 7.407 7.335 7.335 0 0 1-7.407-7.407z" data-name="Path 99"/>
</svg>
