<svg xmlns="http://www.w3.org/2000/svg" width="40.321" height="28.8" viewBox="0 0 40.321 28.8">
    <path id="Icon_zocial-cart" fill="#517da2" d="M1659.438 725.445a1.6 1.6 0 0 1 1.656-1.656h8.46a1.645 1.645 0 0 1 1.026.342 1.6 1.6 0 0 1 .594.918l.864 3.528h24.262l.253-.756a1.489 1.489 0 0 1 1.548-1.152 1.1 1.1 0 0 1 .468.072 1.546 1.546 0 0 1 .864.576 1.568 1.568 0 0 1 .324.972 1.96 1.96 0 0 1-.072.468l-4.248 14.152a1.542 1.542 0 0 1-.576.864 1.58 1.58 0 0 1-.972.324h-20.124a1.6 1.6 0 0 1-1.026-.359 1.686 1.686 0 0 1-.594-.9l-3.888-15.773h-7.164a1.63 1.63 0 0 1-1.17-.468 1.54 1.54 0 0 1-.485-1.152zm14.9 23.832a3.162 3.162 0 0 1 .99-2.34 3.249 3.249 0 0 1 2.358-.972 3.311 3.311 0 1 1 0 6.623 3.253 3.253 0 0 1-2.358-.971 3.166 3.166 0 0 1-.986-2.34zm12.492 0a3.164 3.164 0 0 1 .991-2.34 3.25 3.25 0 0 1 2.358-.972 3.311 3.311 0 1 1 0 6.623 3.253 3.253 0 0 1-2.358-.971 3.163 3.163 0 0 1-.991-2.336z" data-name="Icon zocial-cart" transform="translate(-1659.437 -723.788)"/>
</svg>
