<svg xmlns="http://www.w3.org/2000/svg" width="41" height="23">
    <path fill="#E7EBEE" fill-rule="evenodd" d="M40.636 11.673l-.001.034-.009.061-.004.024c-.003.02-.008.039-.014.059l-.006.026-.017.049-.013.035-.017.037c-.007.016-.013.031-.021.046l-.016.027-.031.052-.005.007c-4.539 6.661-12.06 10.638-20.119 10.638-8.058 0-15.579-3.977-20.119-10.638l-.004-.007-.031-.052-.016-.027-.022-.046-.016-.037-.013-.035-.017-.049-.007-.026-.014-.059-.003-.024-.009-.061-.002-.034-.002-.051.002-.051.002-.034.009-.06.003-.025.014-.059.007-.026.017-.049.013-.035.016-.037.022-.046.016-.027.031-.052.004-.006c.388-.57.799-1.119 1.228-1.648l.045-.055C6.122 3.775 13.02.465 20.362.465h.003c8.052.001 15.573 3.982 20.117 10.649l.004.007c.012.017.022.034.032.052l.016.027c.008.015.014.03.021.046l.017.037.013.035.017.049.006.026c.006.02.011.039.014.059l.004.025.009.06.001.035c.001.016.003.033.003.05l-.003.051zm-37.3-1.625c.267.474.41 1.011.41 1.568 0 .561-.144 1.1-.413 1.576 2.513 2.9 5.704 5.087 9.251 6.391-2.065-2.026-3.35-4.849-3.35-7.967 0-3.115 1.283-5.936 3.346-7.961-3.543 1.305-6.731 3.493-9.244 6.393zm17.029-7.781h-.002c-5.143 0-9.327 4.194-9.327 9.349 0 5.156 4.184 9.35 9.327 9.35 5.144 0 9.328-4.194 9.328-9.35 0-5.154-4.183-9.348-9.326-9.349zm7.783 1.388c2.062 2.025 3.344 4.846 3.344 7.961 0 3.118-1.284 5.941-3.349 7.967 4.162-1.53 7.832-4.275 10.494-7.961-2.663-3.688-6.332-6.435-10.489-7.967zm-3.059 8.599c-.154 1.137-.712 2.182-1.573 2.941-.861.759-1.967 1.182-3.114 1.191l-.039.001c-1.133 0-2.231-.405-3.094-1.142-.873-.745-1.448-1.78-1.62-2.915-.172-1.135.072-2.294.685-3.264l.005-.005.009-.01.011-.007.006-.004.005-.001.013-.002h.012l.011.002.012.005.005.002.005.005c.003.002.007.005.009.009l.007.011.004.005c.218.551.758.888 1.344.838.593-.049 1.075-.474 1.198-1.056.124-.582-.139-1.163-.654-1.446l-.005-.005-.01-.008-.008-.011-.004-.005-.001-.005c-.002-.004-.003-.008-.003-.013-.001-.004-.002-.008-.001-.011l.001-.012.004-.013.002-.004.004-.006.009-.01.01-.007c.002-.002.003-.004.006-.005 1.039-.487 2.219-.583 3.323-.27 1.104.313 2.058 1.014 2.688 1.974.629.96.891 2.115.738 3.253z"/>
</svg>
