<svg xmlns="http://www.w3.org/2000/svg" width="18" height="18.01">
    <path data-name="Path 798" d="M946.2 530.191a.288.288 0 0 1-.21-.089l-3.74-3.741a.286.286 0 0 1-.09-.21V524.8h1.349a.286.286 0 0 1 .21.09l3.74 3.74a.3.3 0 0 1 0 .41l-1.06 1.06a.284.284 0 0 1-.199.091zm-9.46-3.61a7.2 7.2 0 0 1-7.14-6.32 7.191 7.191 0 0 1 11.57-6.55 7.193 7.193 0 0 1 1.24 10.1l-.54.7-.7.54a7.191 7.191 0 0 1-4.428 1.53zm0-12.631a5.425 5.425 0 1 0 3.84 9.261 5.338 5.338 0 0 0 1.58-3.83 5.428 5.428 0 0 0-5.418-5.431z" transform="translate(-929.544 -512.181)" style="fill:#b2d8f7"/>
</svg>
