<svg xmlns="http://www.w3.org/2000/svg" width="25" height="22.218" viewBox="0 0 25 22.218">
    <path id="Icon_awesome-edit" fill="#97b0c6" d="M17.474 3.614l3.915 3.915a.424.424 0 0 1 0 .6l-9.479 9.478-4.028.447a.844.844 0 0 1-.933-.933l.451-4.028 9.479-9.479a.424.424 0 0 1 .595 0zm7.031-.994L22.388.5a1.7 1.7 0 0 0-2.4 0l-1.533 1.538a.424.424 0 0 0 0 .6l3.915 3.914a.424.424 0 0 0 .6 0l1.536-1.536a1.7 1.7 0 0 0 0-2.4zm-7.838 12.409v4.418H2.778V5.558h9.974a.534.534 0 0 0 .369-.152l1.736-1.736a.521.521 0 0 0-.369-.89H2.083A2.084 2.084 0 0 0 0 4.864v15.278a2.084 2.084 0 0 0 2.083 2.083h15.278a2.084 2.084 0 0 0 2.083-2.083v-6.849a.522.522 0 0 0-.89-.369l-1.735 1.736a.534.534 0 0 0-.152.369z" data-name="Icon awesome-edit" transform="translate(0 -.007)"/>
</svg>
