<?xml version="1.0" encoding="utf-8"?>
<!-- Svg Vector Icons : http://www.onlinewebfonts.com/icon -->
<!DOCTYPE svg PUBLIC "-//W3C//DTD SVG 1.1//EN" "http://www.w3.org/Graphics/SVG/1.1/DTD/svg11.dtd">
<svg version="1.1" xmlns="http://www.w3.org/2000/svg" xmlns:xlink="http://www.w3.org/1999/xlink" x="0px" y="0px" viewBox="0 0 1000 1000" enable-background="new 0 0 1000 1000" xml:space="preserve">
<metadata> Svg Vector Icons : http://www.onlinewebfonts.com/icon </metadata>
<g><path d="M85.4,10L85.4,10L85.4,10z"/><path d="M386.9,443.5v339.2c0,5.5-1.8,10-5.3,13.5c-3.5,3.5-8,5.3-13.5,5.3h-37.7c-5.5,0-10-1.8-13.5-5.3c-3.5-3.5-5.3-8-5.3-13.5V443.5c0-5.5,1.8-10,5.3-13.5c3.5-3.5,8-5.3,13.5-5.3h37.7c5.5,0,10,1.8,13.5,5.3C385.2,433.5,386.9,438,386.9,443.5z M537.7,443.5v339.2c0,5.5-1.8,10-5.3,13.5c-3.5,3.5-8,5.3-13.5,5.3h-37.7c-5.5,0-10-1.8-13.5-5.3c-3.5-3.5-5.3-8-5.3-13.5V443.5c0-5.5,1.8-10,5.3-13.5c3.5-3.5,8-5.3,13.5-5.3h37.7c5.5,0,10,1.8,13.5,5.3C535.9,433.5,537.7,438,537.7,443.5z M688.5,443.5v339.2c0,5.5-1.8,10-5.3,13.5c-3.5,3.5-8,5.3-13.5,5.3h-37.7c-5.5,0-10-1.8-13.5-5.3c-3.5-3.5-5.3-8-5.3-13.5V443.5c0-5.5,1.8-10,5.3-13.5c3.5-3.5,8-5.3,13.5-5.3h37.7c5.5,0,10,1.8,13.5,5.3C686.7,433.5,688.5,438,688.5,443.5z M763.9,869.9V311.5H236.2v558.3c0,8.6,1.4,16.6,4.1,23.8s5.6,12.6,8.5,15.9c2.9,3.3,5,5,6.2,5h490c1.2,0,3.2-1.7,6.2-5c2.9-3.3,5.8-8.6,8.5-15.9C762.5,886.5,763.9,878.5,763.9,869.9z M368.1,236.2h263.8l-28.3-68.9c-2.8-3.5-6.1-5.7-10-6.5H407c-3.9,0.8-7.3,2.9-10,6.5L368.1,236.2z M914.6,255v37.7c0,5.5-1.8,10-5.3,13.5c-3.5,3.5-8,5.3-13.5,5.3h-56.5v558.3c0,32.6-9.2,60.8-27.7,84.5C793.1,978.1,770.9,990,745,990H255c-25.9,0-48.1-11.5-66.6-34.4c-18.5-23-27.7-50.7-27.7-83.3V311.5h-56.5c-5.5,0-10-1.8-13.5-5.3c-3.5-3.5-5.3-8-5.3-13.5V255c0-5.5,1.8-10,5.3-13.5s8-5.3,13.5-5.3h182l41.2-98.3c5.9-14.5,16.5-26.9,31.8-37.1c15.3-10.2,30.8-15.3,46.5-15.3h188.5c15.7,0,31.2,5.1,46.5,15.3c15.3,10.2,25.9,22.6,31.8,37.1l41.2,98.3h182c5.5,0,10,1.8,13.5,5.3C912.8,245,914.6,249.5,914.6,255L914.6,255z"/></g>
</svg>