<?xml version="1.0" encoding="utf-8"?>
<!-- Generator: Adobe Illustrator 24.1.1, SVG Export Plug-In . SVG Version: 6.00 Build 0)  -->
<svg version="1.1" id="_1" xmlns="http://www.w3.org/2000/svg" xmlns:xlink="http://www.w3.org/1999/xlink" x="0px" y="0px"
	 viewBox="0 0 109.6 112.6" style="enable-background:new 0 0 109.6 112.6;" xml:space="preserve">
<style type="text/css">
	.st0{fill:#FFFFFF;}
</style>
<path class="st0" d="M83.9,11.3H18.8c-6.3,0-11.4,5.1-11.4,11.4v65.1c0,6.3,5.1,11.4,11.4,11.4h65.1c6.3,0,11.4-5.1,11.4-11.4V22.7
	C95.3,16.4,90.2,11.3,83.9,11.3z M37.1,50.9l-11.4,14c-0.6,0.7-1.4,1.1-2.3,1.1c-0.2,0-0.3,0-0.5-0.1c-1-0.2-1.9-0.9-2.2-1.9
	l-3.6-10.6c-0.5-1.5,0.3-3.2,1.8-3.7c1.5-0.5,3.2,0.3,3.7,1.8l1.9,5.7l8.1-9.9c1-1.2,2.8-1.4,4.1-0.4C37.9,47.9,38.1,49.7,37.1,50.9
	z M37.1,26.4l-11.4,14c-0.6,0.7-1.4,1.1-2.3,1.1c-0.2,0-0.3,0-0.5,0c-1-0.2-1.9-0.9-2.2-1.9l-3.6-10.6c-0.5-1.5,0.3-3.2,1.8-3.7
	c1.5-0.5,3.2,0.3,3.7,1.8l1.9,5.7l8.1-9.9c1-1.2,2.8-1.4,4.1-0.4C37.9,23.4,38.1,25.2,37.1,26.4z M79.7,61.7H44.6
	c-2.6,0-4.6-2.1-4.6-4.6s2.1-4.6,4.6-4.6h35.2c2.6,0,4.6,2.1,4.6,4.6S82.3,61.7,79.7,61.7z M79.7,37.1H44.6c-2.6,0-4.6-2.1-4.6-4.6
	s2.1-4.6,4.6-4.6h35.2c2.6,0,4.6,2.1,4.6,4.6S82.3,37.1,79.7,37.1z M37.1,73.9l-11.4,14c-0.6,0.7-1.4,1.1-2.3,1.1
	c-0.2,0-0.3,0-0.5-0.1c-1-0.2-1.9-0.9-2.2-1.9l-3.6-10.6c-0.5-1.5,0.3-3.2,1.8-3.7c1.5-0.5,3.2,0.3,3.7,1.8l1.9,5.7l8.1-9.9
	c1-1.2,2.8-1.4,4.1-0.4C37.9,70.9,38.1,72.7,37.1,73.9z M79.7,84.7H44.6c-2.6,0-4.6-2.1-4.6-4.6s2.1-4.6,4.6-4.6h35.2
	c2.6,0,4.6,2.1,4.6,4.6C84.4,82.6,82.3,84.7,79.7,84.7z"/>
</svg>
