<svg xmlns="http://www.w3.org/2000/svg" width="38" height="32">
    <path fill="#E7EBEE" fill-rule="evenodd" d="M36.894 4.834c-.461.677-1.034 1.256-1.72 1.735l-5.171 3.594-1.426.992-.211.151c-.102.072-.23.165-.389.28-.305.221-.559.4-.761.536-.202.136-.446.289-.733.459-.287.169-.557.296-.811.381-.253.084-.488.127-.704.127H24.939c-.216 0-.451-.043-.704-.127-.254-.085-.524-.212-.811-.381-.287-.17-.531-.322-.733-.459-.202-.136-.456-.315-.761-.536l-.389-.281-.211-.15c-.393-.277-.87-.611-1.422-.996-.649-.453-1.403-.977-2.271-1.579-1.607-1.114-2.571-1.785-2.89-2.011-.583-.395-1.133-.938-1.65-1.629-.516-.692-.775-1.334-.775-1.927 0-.733.195-1.345.585-1.834.39-.489.947-.734 1.671-.734h20.751c.61 0 1.139.221 1.586.664.446.442.669.973.669 1.594 0 .743-.23 1.454-.69 2.131zM18.412 21.631l-.731.508-1.427.992-.211.151-.388.28c-.306.221-.559.399-.761.536-.203.136-.447.289-.734.458-.287.17-.557.297-.81.382-.254.084-.489.126-.705.126h-.028c-.216 0-.451-.042-.705-.126-.254-.085-.524-.212-.811-.382-.287-.169-.531-.321-.733-.458-.202-.137-.456-.315-.761-.536l-.389-.281-.21-.15c-.394-.277-.871-.611-1.423-.996-.649-.453-1.403-.977-2.271-1.579-1.607-1.115-2.57-1.785-2.89-2.011-.583-.395-1.133-.938-1.649-1.629C.258 16.224 0 15.582 0 14.989c0-.733.194-1.345.584-1.834.39-.489.947-.734 1.671-.734h8.771v6.839c0 1.309 1.061 2.371 2.369 2.371h5.017zM1.714 19.764c1.996 1.358 3.622 2.476 4.884 3.358L.29 29.436v-10.9c.414.461.888.871 1.424 1.228zm6.715 4.868c.536.395.97.703 1.304.924.333.221.778.447 1.332.677.555.231 1.072.346 1.551.346h.028c.48 0 .996-.115 1.551-.346.554-.23.999-.456 1.332-.677.334-.221.769-.529 1.304-.924l.496-.357 7.157 7.165c-.418.37-.91.558-1.478.558H2.255c-.568 0-1.06-.188-1.479-.558l7.159-7.167c.179.129.345.249.494.359zm12.394-3.001h4.148v7.805l-6.306-6.312c.651-.455 1.371-.953 2.158-1.493zM12.613 6.56c.413.462.888.871 1.424 1.228 1.996 1.358 3.622 2.476 4.884 3.358l-6.308 6.314V6.56zm23.271 1.228c.535-.367 1.005-.776 1.409-1.228v10.9l-6.305-6.311c1.344-.94 2.976-2.06 4.896-3.361zM13.099 19.464l7.159-7.167c.179.129.345.249.494.359.536.395.97.703 1.304.924.333.222.778.447 1.332.677.555.231 1.071.346 1.551.346h.028c.479 0 .996-.115 1.551-.346.554-.23.998-.455 1.332-.677.334-.221.769-.529 1.304-.924l.496-.356 7.157 7.164c-.418.37-.91.558-1.478.558H14.578c-.568 0-1.061-.188-1.479-.558z"/>
</svg>
