<svg xmlns="http://www.w3.org/2000/svg" width="30" height="27.993" viewBox="0 0 30 27.993">
    <defs>
        <style>
            .cls-1{fill:#6792b6}
        </style>
    </defs>
    <g id="Group_870" transform="translate(-322.967 -438.445)">
        <path id="Path_694" d="M386.141 438.445a6.6 6.6 0 1 0 6.622 6.575 6.6 6.6 0 0 0-6.622-6.575zm4.42 5.156q-2.493 2.524-5 5.034a.85.85 0 0 1-1.3.011q-1.058-1.023-2.089-2.076a.87.87 0 0 1-.021-1.272.885.885 0 0 1 1.272.077c.482.482.951.978 1.471 1.515 1.095-1.116 2.133-2.177 3.174-3.235.417-.424.834-.848 1.262-1.262a.864.864 0 1 1 1.232 1.208z" class="cls-1" transform="translate(-39.796)"/>
        <path id="Path_695" d="M346.4 453.6a8.249 8.249 0 0 1-5.95-13.994l-.768-.6a.618.618 0 0 0-.759 0l-1.862 1.448a.618.618 0 0 1-.759 0L334.437 439a.619.619 0 0 0-.759 0l-1.94 1.508a.618.618 0 0 1-.759 0l-1.94-1.508a.619.619 0 0 0-.759 0l-2.089 1.624a.619.619 0 0 1-.759 0l-2.132-1.634a.205.205 0 0 0-.33.163v27.04a.546.546 0 0 0 .547.546h26.22a.546.546 0 0 0 .547-.546V452.61a8.213 8.213 0 0 1-3.884.99zm-15.576-3.556c-1.712-.42-3.558-1.006-3.558-3.048a2.829 2.829 0 0 1 2.734-2.767v-1.622h1.486v1.636a5.437 5.437 0 0 1 2.567.976l-.675 1.531a4.9 4.9 0 0 0-2.627-.766c-.631 0-1.381.345-1.381.976 0 .661.631.856 1.5 1.081 1.8.48 3.6 1.171 3.6 3.078 0 1.727-1.381 2.717-2.988 2.973v1.708H330v-1.666a5.134 5.134 0 0 1-3.078-1.291l.676-1.532a4.478 4.478 0 0 0 3 1.051c.856 0 1.757-.465 1.757-1.2s-.813-.962-1.533-1.122zm-4.563 8.194h15.879a.742.742 0 1 1 0 1.484h-15.881a.742.742 0 0 1 0-1.484zm21.284 5.047h-21.286a.742.742 0 0 1 0-1.484h21.284a.742.742 0 1 1 0 1.484z" class="cls-1" transform="translate(0 -.302)"/>
    </g>
</svg>
