<svg xmlns="http://www.w3.org/2000/svg" width="36.321" height="32.618" viewBox="0 0 36.321 32.618">
    <defs>
        <style>
            .cls-1{fill:#517da2}
        </style>
    </defs>
    <g id="Group_808" data-name="Group 808" transform="translate(-722.331 -702.954)">
        <path id="Path_662" d="M729.863 730.782a7.927 7.927 0 0 1 5.372-4c.088-.024.162-.044.218-.062l.294-.09c2.48-.751 3.182-1.188 3.374-1.4a3.212 3.212 0 0 0 .027-.691 15.864 15.864 0 0 1-2.041-3.619 1.6 1.6 0 0 1-1.122-.784c-2.443-3.6-.618-5.355-.225-5.672a1.427 1.427 0 0 1 .141-.1 8.351 8.351 0 0 1 2.056-5.413 8.68 8.68 0 0 1 5.122-2.589 7.43 7.43 0 0 0-5.933-3.416 4.614 4.614 0 0 1-.5.02 4.488 4.488 0 0 1-.5-.02c-.749.034-7.281.549-6.907 8.18l-.027-.08s-.264-.37-.53-.158-1.483 1.377.478 4.236c0 0 .252.539.874.1a15.419 15.419 0 0 0 2.426 4.458 3.876 3.876 0 0 1-.105 1.58c-.423.954-3.495 1.8-4.342 2.066-.691.216-3.631.786-4.925 3.482l.022.013a8.161 8.161 0 0 0-.732 4.3h7.321z" class="cls-1" data-name="Path 662"/>
        <path id="Path_663" d="M764.39 735.3l.058-.03c-1.181-3.042-4.369-3.664-5.093-3.89-.847-.264-3.919-1.112-4.342-2.066a3.874 3.874 0 0 1-.105-1.58 15.417 15.417 0 0 0 2.426-4.458c.623.435.874-.1.874-.1 1.961-2.86.742-4.024.478-4.236s-.529.159-.529.159l-.028.079c.373-7.619-6.134-8.143-6.9-8.179.012 0-.066.008-.5.02a4.975 4.975 0 0 1-.5-.02c-.749.034-7.281.548-6.908 8.179l-.027-.079s-.265-.371-.529-.159-1.483 1.377.477 4.236c0 0 .252.54.874.1a15.436 15.436 0 0 0 2.426 4.458 3.881 3.881 0 0 1-.105 1.58c-.423.954-3.495 1.8-4.342 2.066-.691.216-3.631.785-4.925 3.482l.022.012a8.167 8.167 0 0 0-.732 4.3h14.41v-.012h14.048a8.346 8.346 0 0 0-.528-3.862z" class="cls-1" data-name="Path 663" transform="translate(-6.309 -3.602)"/>
    </g>
</svg>
