<?xml version="1.0" encoding="utf-8"?>
<!-- Generator: Adobe Illustrator 24.1.1, SVG Export Plug-In . SVG Version: 6.00 Build 0)  -->
<svg version="1.1" id="_1" xmlns="http://www.w3.org/2000/svg" xmlns:xlink="http://www.w3.org/1999/xlink" x="0px" y="0px"
	 viewBox="0 0 109.64 112.61" style="enable-background:new 0 0 109.64 112.61;" xml:space="preserve">
<style type="text/css">
	.st0{fill:#2F4455;}
</style>
<path class="st0" d="M83.89,11.27H18.78c-6.31,0-11.43,5.12-11.43,11.43V87.8c0,6.31,5.12,11.43,11.43,11.43h65.11
	c6.31,0,11.43-5.12,11.43-11.43V22.7C95.31,16.39,90.2,11.27,83.89,11.27z M37.09,50.94l-11.35,14c-0.56,0.69-1.39,1.07-2.25,1.07
	c-0.17,0-0.34-0.01-0.51-0.05c-1.04-0.18-1.89-0.92-2.23-1.92l-3.62-10.62c-0.52-1.51,0.29-3.16,1.81-3.68
	c1.52-0.51,3.16,0.29,3.68,1.81l1.93,5.66l8.05-9.93c1.01-1.24,2.83-1.44,4.08-0.43C37.9,47.87,38.1,49.7,37.09,50.94z M37.09,26.43
	l-11.35,14c-0.56,0.69-1.39,1.07-2.25,1.07c-0.17,0-0.34-0.01-0.51-0.05c-1.04-0.18-1.89-0.92-2.23-1.92l-3.62-10.62
	c-0.52-1.51,0.29-3.16,1.81-3.68c1.52-0.51,3.16,0.29,3.68,1.81l1.93,5.66l8.05-9.93c1.01-1.24,2.83-1.44,4.08-0.43
	C37.9,23.36,38.1,25.18,37.09,26.43z M79.73,61.65H44.57c-2.56,0-4.63-2.07-4.63-4.63s2.07-4.63,4.63-4.63h35.16
	c2.56,0,4.63,2.07,4.63,4.63S82.29,61.65,79.73,61.65z M79.73,37.13H44.57c-2.56,0-4.63-2.07-4.63-4.63s2.07-4.63,4.63-4.63h35.16
	c2.56,0,4.63,2.07,4.63,4.63S82.29,37.13,79.73,37.13z M37.09,73.94l-11.35,14c-0.56,0.69-1.39,1.07-2.25,1.07
	c-0.17,0-0.34-0.01-0.51-0.05c-1.04-0.18-1.89-0.92-2.23-1.92l-3.62-10.62c-0.52-1.51,0.29-3.16,1.81-3.68
	c1.52-0.51,3.16,0.29,3.68,1.81l1.93,5.66l8.05-9.93c1.01-1.24,2.83-1.44,4.08-0.43C37.9,70.87,38.1,72.7,37.09,73.94z M79.73,84.65
	H44.57c-2.56,0-4.63-2.07-4.63-4.63c0-2.56,2.07-4.63,4.63-4.63h35.16c2.56,0,4.63,2.07,4.63,4.63
	C84.36,82.57,82.29,84.65,79.73,84.65z"/>
</svg>
