<svg xmlns="http://www.w3.org/2000/svg" id="Group_900" width="38.957" height="38.957" data-name="Group 900" viewBox="0 0 38.957 38.957">
    <path id="Icon_ionic-ios-checkmark-circle" fill="#3d6e98" d="M22.853 3.375a19.478 19.478 0 1 0 19.479 19.478A19.475 19.475 0 0 0 22.853 3.375zm9.973 14.094l-12.52 12.576H20.3a1.691 1.691 0 0 1-1.086.515 1.639 1.639 0 0 1-1.1-.534l-5.244-5.244a.373.373 0 0 1 0-.534l1.667-1.667a.362.362 0 0 1 .524 0l4.159 4.159 11.425-11.509a.37.37 0 0 1 .262-.112.34.34 0 0 1 .262.112l1.639 1.695a.369.369 0 0 1 .019.543z" data-name="Icon ionic-ios-checkmark-circle" transform="translate(-3.375 -3.375)"/>
</svg>
