<svg xmlns="http://www.w3.org/2000/svg" width="30.232" height="30.232" viewBox="0 0 30.232 30.232">
    <path id="Icon_awesome-thumbs-up" fill="#fff" d="M6.141 13.227H1.417A1.417 1.417 0 0 0 0 14.644v14.171a1.417 1.417 0 0 0 1.417 1.417h4.724a1.417 1.417 0 0 0 1.417-1.417V14.644a1.417 1.417 0 0 0-1.417-1.417zM3.779 27.871A1.417 1.417 0 1 1 5.2 26.453a1.417 1.417 0 0 1-1.421 1.418zM22.674 4.81c0 2.5-1.533 3.909-1.965 5.583h6.007a3.528 3.528 0 0 1 3.516 3.431 4.275 4.275 0 0 1-1.148 2.9l-.006.006a4.932 4.932 0 0 1-.55 4.692 4.669 4.669 0 0 1-.967 4.414 3.135 3.135 0 0 1-.363 2.635c-1.205 1.732-4.192 1.756-6.718 1.756h-.168a16.951 16.951 0 0 1-7.06-1.873 9.293 9.293 0 0 0-3.109-.955.709.709 0 0 1-.7-.708V14.073a.708.708 0 0 1 .21-.5C12 11.258 13 8.811 14.92 6.891a7.151 7.151 0 0 0 1.5-3.478c.263-1.092.812-3.413 2-3.413 1.42 0 4.254.472 4.254 4.81z" data-name="Icon awesome-thumbs-up"/>
</svg>
