<?xml version="1.0" encoding="utf-8"?>
<!-- Generator: Adobe Illustrator 24.1.1, SVG Export Plug-In . SVG Version: 6.00 Build 0)  -->
<svg version="1.1" id="Layer_1" xmlns="http://www.w3.org/2000/svg" xmlns:xlink="http://www.w3.org/1999/xlink" x="0px" y="0px"
	 viewBox="0 0 150.1 124.5" style="enable-background:new 0 0 150.1 124.5;" xml:space="preserve">
<style type="text/css">
	.st0{fill:#273947;}
</style>
<g>
	<path class="st0" d="M87.6,118.4c2,0,3.8-0.7,5.3-2L67.4,90.8c-0.6,0.4-1.2,0.9-1.8,1.3c-1.9,1.4-3.5,2.5-4.7,3.3
		c-1.2,0.8-2.8,1.6-4.8,2.4c-2,0.8-3.8,1.2-5.5,1.2h-0.1h0c-1.7,0-3.6-0.4-5.5-1.2c-2-0.8-3.6-1.6-4.8-2.4c-1.2-0.8-2.7-1.9-4.7-3.3
		c-0.5-0.4-1.1-0.8-1.8-1.3L8.2,116.4c1.5,1.3,3.3,2,5.3,2H87.6z"/>
	<path class="st0" d="M11.6,74.7C9.7,73.4,8,72,6.5,70.3v38.9L29,86.7C24.5,83.6,18.7,79.6,11.6,74.7z"/>
	<path class="st0" d="M59.6,86.8c-6.4,0-11.6-5.2-11.6-11.6V48.5H13.5c-2.6,0-4.6,0.9-6,2.6c-1.4,1.7-2.1,3.9-2.1,6.5
		c0,2.1,0.9,4.4,2.8,6.9c1.8,2.5,3.8,4.4,5.9,5.8c1.1,0.8,4.6,3.2,10.3,7.2c3.1,2.1,5.8,4,8.1,5.6c2,1.4,3.7,2.6,5.1,3.6
		c0.2,0.1,0.4,0.3,0.8,0.5c0.4,0.3,0.8,0.6,1.4,1c1.1,0.8,2,1.4,2.7,1.9c0.7,0.5,1.6,1,2.6,1.6c1,0.6,2,1.1,2.9,1.4
		c0.9,0.3,1.7,0.5,2.5,0.5h0.1h0c0.8,0,1.6-0.2,2.5-0.5c0.9-0.3,1.9-0.8,2.9-1.4c1-0.6,1.9-1.1,2.6-1.6c0.7-0.5,1.6-1.1,2.7-1.9
		c0.6-0.4,1-0.7,1.4-1c0.3-0.2,0.6-0.4,0.7-0.5H59.6z"/>
	<polygon class="st0" points="72.2,86.8 94.7,109.2 94.7,86.8 	"/>
</g>
<g>
	<path class="st0" d="M136.5,78.6c2,0,3.8-0.7,5.3-2L116.2,51c-0.6,0.4-1.2,0.9-1.8,1.3c-1.9,1.4-3.5,2.5-4.7,3.3
		c-1.2,0.8-2.8,1.6-4.8,2.4c-2,0.8-3.8,1.2-5.5,1.2h-0.1h0c-1.7,0-3.6-0.4-5.5-1.2c-2-0.8-3.6-1.6-4.8-2.4c-1.2-0.8-2.7-1.9-4.7-3.3
		c-0.5-0.4-1.1-0.8-1.8-1.3L57.1,76.6c1.5,1.3,3.3,2,5.3,2H136.5z"/>
	<path class="st0" d="M60.4,34.9c-1.9-1.3-3.6-2.7-5.1-4.4v38.9l22.5-22.5C73.4,43.7,67.5,39.8,60.4,34.9z"/>
	<path class="st0" d="M138.5,34.9c-6.9,4.6-12.7,8.6-17.5,12l22.5,22.5V30.5C142.1,32.1,140.4,33.6,138.5,34.9z"/>
	<path class="st0" d="M136.5,8.7H62.3c-2.6,0-4.6,0.9-6,2.6c-1.4,1.7-2.1,3.9-2.1,6.5c0,2.1,0.9,4.4,2.8,6.9
		c1.8,2.5,3.8,4.4,5.9,5.8c1.1,0.8,4.6,3.2,10.3,7.2c3.1,2.1,5.8,4,8.1,5.6c2,1.4,3.7,2.6,5.1,3.6c0.2,0.1,0.4,0.3,0.8,0.5
		c0.4,0.3,0.8,0.6,1.4,1c1.1,0.8,2,1.4,2.7,1.9c0.7,0.5,1.6,1,2.6,1.6c1,0.6,2,1.1,2.9,1.4c0.9,0.3,1.7,0.5,2.5,0.5h0.1h0
		c0.8,0,1.6-0.2,2.5-0.5c0.9-0.3,1.9-0.8,2.9-1.4c1-0.6,1.9-1.1,2.6-1.6c0.7-0.5,1.6-1.1,2.7-1.9c0.6-0.4,1-0.7,1.4-1
		c0.3-0.2,0.6-0.4,0.8-0.5c1.1-0.8,2.8-1.9,5.1-3.5c4.2-2.9,10.3-7.2,18.5-12.8c2.5-1.7,4.5-3.8,6.1-6.2c1.6-2.4,2.5-5,2.5-7.6
		c0-2.2-0.8-4.1-2.4-5.7C140.6,9.5,138.7,8.7,136.5,8.7z"/>
</g>
</svg>
