<svg xmlns="http://www.w3.org/2000/svg" width="28" height="31">
    <path fill="#7793AB" fill-rule="evenodd" d="M.573 7.033L.566 4.276l2.622-.005-.003-1.451c0-.113.046-.223.126-.304.079-.08.19-.126.303-.126l5.352-.012L8.963.904c0-.229.091-.452.252-.614.161-.161.384-.253.612-.254l8.537-.019c.227 0 .451.091.612.253.162.16.255.383.255.611l.004 1.475 5.345-.011c.113 0 .224.045.304.125.08.079.126.19.126.303l.004 1.451 2.613-.006.006 2.756-27.06.059zm25.607 22.63c0 .738-.598 1.336-1.335 1.336H3.354c-.737 0-1.334-.598-1.334-1.336V7.826h24.16v21.837zM8.6 10.671c0-.107-.042-.213-.119-.29-.076-.076-.182-.12-.29-.12H5.808c-.037 0-.073.005-.109.016-.029.008-.058.019-.084.033-.036.019-.069.043-.097.071-.05.05-.086.112-.105.179-.01.036-.015.074-.015.111V28.82c0 .036.005.071.014.106.012.043.03.084.055.121.015.023.032.044.051.063.077.076.181.12.29.12h2.383c.11 0 .212-.042.29-.12.077-.078.119-.18.119-.29V10.671zm7.102 0c0-.08-.026-.16-.07-.227-.015-.023-.032-.043-.051-.063l-.03-.027c-.021-.017-.043-.032-.067-.044-.024-.012-.049-.023-.074-.031-.039-.012-.079-.018-.119-.018h-2.383c-.037 0-.074.005-.11.016-.068.018-.13.054-.181.104-.057.058-.096.131-.111.211l-.007.039-.001.04V28.82c0 .027.002.053.008.08.01.052.031.103.061.147.014.023.031.044.05.063.078.076.183.12.291.12h2.383c.109 0 .212-.042.29-.12.077-.078.121-.18.121-.29V10.671zm7.1 0c0-.053-.011-.107-.032-.156l-.017-.037c-.019-.035-.043-.067-.072-.097l-.029-.027c-.021-.017-.043-.032-.067-.044-.023-.012-.048-.023-.074-.031-.038-.012-.079-.018-.119-.018h-2.384c-.04 0-.08.006-.119.018-.026.008-.051.019-.074.031-.035.019-.068.043-.096.071l-.026.028c-.06.073-.095.167-.095.262V28.82c0 .108.044.214.121.29.028.029.061.053.096.072l.037.017c.049.02.103.031.156.031h2.384c.109 0 .211-.042.289-.12.016-.016.03-.034.044-.052.05-.069.077-.152.077-.238V10.671z"/>
</svg>
