<?xml version="1.0" encoding="utf-8"?>
<!-- Generator: Adobe Illustrator 24.1.1, SVG Export Plug-In . SVG Version: 6.00 Build 0)  -->
<svg version="1.1" id="Layer_1" xmlns="http://www.w3.org/2000/svg" xmlns:xlink="http://www.w3.org/1999/xlink" x="0px" y="0px"
	 viewBox="0 0 256 256" style="enable-background:new 0 0 256 256;" xml:space="preserve">
<style type="text/css">
	.st0{fill:#606060;}
</style>
<g>
	<path class="st0" d="M221,73H34c-12.7,0-23-10.3-23-23v0c0-12.7,10.3-23,23-23h187c12.7,0,23,10.3,23,23v0
		C244,62.7,233.7,73,221,73z"/>
</g>
<g>
	<path class="st0" d="M221,153H34c-12.7,0-23-10.3-23-23v0c0-12.7,10.3-23,23-23h187c12.7,0,23,10.3,23,23v0
		C244,142.7,233.7,153,221,153z"/>
</g>
<g>
	<path class="st0" d="M221,233H34c-12.7,0-23-10.3-23-23v0c0-12.7,10.3-23,23-23h187c12.7,0,23,10.3,23,23v0
		C244,222.7,233.7,233,221,233z"/>
</g>
</svg>
