<svg xmlns="http://www.w3.org/2000/svg" width="32" height="33">
    <path fill="#97B0C6" fill-rule="evenodd" d="M24.918 28.705c-.996.7-2.371.461-3.072-.533-.701-.994-.462-2.367.534-3.067 2.92-2.052 4.663-5.402 4.663-8.961 0-6.038-4.92-10.95-10.968-10.95-6.047 0-10.966 4.912-10.966 10.95 0 3.563 1.746 6.915 4.671 8.967.996.699 1.236 2.071.536 3.066-.429.61-1.112.937-1.806.937-.438 0-.88-.13-1.265-.401C3.146 25.838.699 21.14.699 16.144.699 7.679 7.597.792 16.075.792c8.479 0 15.377 6.887 15.377 15.352 0 4.99-2.442 9.686-6.534 12.561zm-9.013-7.957c1.218 0 2.205.985 2.205 2.201v7.862c0 1.215-.987 2.201-2.205 2.201s-2.205-.986-2.205-2.201v-7.862c0-1.216.987-2.201 2.205-2.201z"/>
</svg>
