<svg xmlns="http://www.w3.org/2000/svg" id="Component_86_1" width="39" height="39" data-name="Component 86 – 1" viewBox="0 0 39 39">
    <rect id="Rectangle_1624" width="39" height="39" fill="#009e87" data-name="Rectangle 1624" rx="5"/>
    <path id="Icon_material-attach-money" fill="#fff" d="M17.293 15.763c-3.236-.841-4.277-1.711-4.277-3.065 0-1.554 1.44-2.637 3.849-2.637 2.538 0 3.479 1.212 3.564 2.994h3.151A5.683 5.683 0 0 0 19 7.622V4.5h-4.274v3.079c-2.766.6-4.99 2.4-4.99 5.147 0 3.293 2.723 4.933 6.7 5.888 3.564.855 4.277 2.11 4.277 3.436 0 .984-.7 2.552-3.849 2.552-2.937 0-4.092-1.312-4.248-2.994H9.48c.171 3.122 2.509 4.876 5.246 5.46v3.094H19V27.1c2.78-.527 4.99-2.138 4.99-5.061.003-4.052-3.461-5.439-6.697-6.276z" data-name="Icon material-attach-money" transform="translate(2.52 2.713)"/>
</svg>
