<svg xmlns="http://www.w3.org/2000/svg" width="28" height="34">
    <path fill="#97B0C6" fill-rule="evenodd" d="M26.186 31.654c-1.063 1.002-2.469 1.511-4.179 1.511H6.174c-1.711 0-3.117-.509-4.179-1.511C.919 30.638.373 29.26.373 27.559c0-.655.022-1.302.066-1.925.044-.637.134-1.33.266-2.061.134-.737.306-1.433.511-2.07.213-.659.502-1.309.859-1.932.37-.646.805-1.209 1.294-1.673.512-.485 1.138-.874 1.861-1.158.72-.283 1.519-.427 2.374-.427.336 0 .661.137 1.287.542.391.252.843.541 1.342.857.43.272 1.014.527 1.734.757.704.226 1.418.341 2.122.341.705 0 1.419-.115 2.122-.341.721-.23 1.305-.485 1.735-.757.504-.319.955-.608 1.341-.857.627-.405.952-.542 1.288-.542.854 0 1.653.144 2.375.427.723.284 1.349.674 1.86 1.158.488.464.924 1.027 1.295 1.673.357.623.646 1.273.859 1.931.205.637.377 1.334.51 2.071.132.732.223 1.425.267 2.06.044.621.066 1.269.066 1.925 0 1.703-.545 3.081-1.621 4.096zM13.883 16.27c-2.176 0-4.06-.774-5.6-2.3-1.54-1.526-2.32-3.394-2.32-5.551 0-2.158.78-4.025 2.32-5.551 1.539-1.527 3.423-2.3 5.6-2.3 2.176 0 4.06.773 5.599 2.299 1.541 1.527 2.321 3.395 2.321 5.552 0 2.157-.781 4.024-2.32 5.551-1.54 1.526-3.424 2.3-5.6 2.3z"/>
</svg>
