<svg xmlns="http://www.w3.org/2000/svg" width="43" height="36">
    <path fill="#97B0C6" fill-rule="evenodd" d="M42.21 30.515H31.868c-1.138-1.675-2.984-2.872-5.532-3.571-.086-.024-.157-.043-.213-.06l-.316-.096c-2.038-.613-2.857-1-3.187-1.217-.003-.059-.004-.131-.004-.22.866-1.142 1.526-2.407 2.005-3.513.59-.189 1.015-.603 1.257-1.007 2.767-4.065.744-6.197.164-6.687-.157-2.332-.931-4.27-2.308-5.775-1.111-1.214-2.441-1.934-3.63-2.366 1.425-4.688 6.28-5.069 6.937-5.099-.015.003.066.009.534.021.461-.012.544-.018.531-.021.81.038 7.701.589 7.306 8.602l.029-.084s.28-.39.56-.167 1.57 1.448-.505 4.455c0 0-.267.568-.926.111-.449 1.231-1.289 3.16-2.57 4.687-.051.694-.039 1.329.112 1.662.448 1.003 3.701 1.894 4.598 2.173.898.279 5.385 1.114 5.833 5.959l.238 1.811c-.187.139-.381.268-.571.402zM23.132 15.709l.029-.084s.28-.389.56-.166 1.57 1.447-.505 4.455c0 0-.267.567-.926.11-.449 1.231-1.289 3.16-2.57 4.688-.051.694-.039 1.329.112 1.662.448 1.003 3.701 1.894 4.598 2.172.897.28 5.385 1.115 5.833 5.959l.193 1.469H.122l.194-1.469c.447-4.844 4.934-5.679 5.831-5.959.897-.278 4.15-1.169 4.599-2.172.15-.333.162-.968.111-1.662-1.281-1.528-2.12-3.457-2.569-4.688-.659.457-.926-.11-.926-.11-2.076-3.008-.786-4.232-.506-4.455.281-.223.561.166.561.166l.029.084c-.396-8.025 6.521-8.566 7.315-8.602-.015.004.066.009.534.021.461-.012.544-.017.531-.021.81.038 7.701.589 7.306 8.602z"/>
</svg>
