<?xml version="1.0" encoding="utf-8"?>
<!-- Generator: Adobe Illustrator 24.1.1, SVG Export Plug-In . SVG Version: 6.00 Build 0)  -->
<svg version="1.1" id="Layer_1" xmlns="http://www.w3.org/2000/svg" xmlns:xlink="http://www.w3.org/1999/xlink" x="0px" y="0px"
	 viewBox="0 0 70 70" style="enable-background:new 0 0 70 70;" xml:space="preserve">
<style type="text/css">
	.st0{fill:#FFFFFF;}
</style>
<path class="st0" d="M42.62,28.73l0-19.89c0-2.92-2.39-5.3-5.3-5.3l-2.65,0c-2.92,0-5.31,2.39-5.3,5.3l0,19.89l-19.89,0
	c-2.92,0-5.3,2.39-5.3,5.3l0,2.65c0,2.92,2.39,5.3,5.3,5.3l19.89,0l0,19.89c0,2.92,2.39,5.3,5.3,5.3l2.65,0c2.92,0,5.3-2.39,5.3-5.3
	l0-19.89l19.89,0c2.92,0,5.3-2.39,5.3-5.3l0-2.65c0-2.92-2.39-5.3-5.3-5.3L42.62,28.73z"/>
</svg>
