<svg xmlns="http://www.w3.org/2000/svg" id="Icon_awesome-sort-amount-up-alt" width="26.286" height="23" data-name="Icon awesome-sort-amount-up-alt" viewBox="0 0 26.286 23">
    <path id="Icon_awesome-sort-amount-up-alt-2" fill="#97b0c6" d="M12.321 5.536h3.286a.821.821 0 0 0 .821-.821V3.071a.821.821 0 0 0-.821-.821h-3.286a.821.821 0 0 0-.821.821v1.643a.821.821 0 0 0 .821.822zm0 6.571h6.571a.821.821 0 0 0 .821-.821V9.643a.821.821 0 0 0-.821-.821h-6.571a.821.821 0 0 0-.821.821v1.643a.821.821 0 0 0 .821.821zm13.143 9.857H12.321a.821.821 0 0 0-.821.821v1.643a.821.821 0 0 0 .821.821h13.143a.821.821 0 0 0 .821-.821v-1.642a.821.821 0 0 0-.821-.822zm-13.143-3.285h9.857a.821.821 0 0 0 .822-.822v-1.643a.821.821 0 0 0-.821-.821h-9.858a.821.821 0 0 0-.821.821v1.643a.821.821 0 0 0 .821.822zM.821 8.821h2.465v15.608a.821.821 0 0 0 .821.821H5.75a.821.821 0 0 0 .821-.821V8.821h2.465a.822.822 0 0 0 .581-1.4l-4.108-4.93a.821.821 0 0 0-1.161 0L.241 7.419a.822.822 0 0 0 .58 1.402z" data-name="Icon awesome-sort-amount-up-alt" transform="translate(0 -2.25)"/>
</svg>
