<?xml version="1.0" encoding="utf-8"?>
<!-- Generator: Adobe Illustrator 24.1.1, SVG Export Plug-In . SVG Version: 6.00 Build 0)  -->
<svg version="1.1" id="Layer_1" xmlns="http://www.w3.org/2000/svg" xmlns:xlink="http://www.w3.org/1999/xlink" x="0px" y="0px"
	 viewBox="0 0 200.2 196.2" style="enable-background:new 0 0 200.2 196.2;" xml:space="preserve">
<style type="text/css">
	.st0{fill:#FFFFFF;}
</style>
<path class="st0" d="M93.4,90.8C88,90.6,84,93,81,97c-1.4,1.8-2.1,4.1-2.6,6.5c-0.5,2.2,0,4.2,0.2,6.2c0.1,0.7,0.5,1.5,0.8,2.2
	c0.4,0.8,0.3,1.3-0.3,1.9c-6.1,6.2-12.3,12.4-18.4,18.7c-7.8,8-15.5,16.1-23.3,24.1c-3.8,3.9-7.6,7.7-11.3,11.7
	c-6,6.4-12,12.8-18.2,19c-0.7,0.7-1.5,1.3-2.2,2c-0.3,0.2-0.6,0.2-0.9,0.1c-0.3-0.2-0.2-0.5-0.1-0.7c1.2-2.9,2.6-5.7,4-8.5
	c2-3.9,3.8-7.8,5.7-11.8c1.4-2.8,2.7-5.6,4-8.4c1.2-2.6,2.4-5.3,3.6-7.9c1.3-2.9,2.6-5.7,3.7-8.7c1.2-3,2.3-6,3.4-9
	c1-2.6,2.1-5.2,3.1-7.9c0.7-1.8,1.2-3.7,1.8-5.5c0.7-1.9,1.4-3.8,2-5.8c0.4-1.3,0.8-2.6,1.2-4c0.7-2.2,1.4-4.5,2-6.7
	c0.4-1.6,0.9-3.2,1.3-4.8c0.4-1.8,0.9-3.5,1.4-5.3c0.3-1.1,0.4-2.3,0.6-3.4c0.5-3,1.4-5.9,2.4-8.8c1.3-3.7,3-7.4,5-10.8
	C54.4,64,59.9,57.9,66,52.4c3.7-3.3,7.8-6.2,12.2-8.6C81,42.3,84,41,87,39.9c2.8-1,5.6-1.8,8.4-2.5c1.5-0.3,3.2-0.6,4.7-0.8
	c2.4-0.4,4.8-0.4,7.3-0.5c0.8,0,1.1-0.7,1.5-1.2c2.2-2.9,4.5-5.6,6.8-8.4c3.8-4.7,7.7-9.4,11.5-14.1c2.2-2.7,4.4-5.4,6.6-8.2
	c0.5-0.7,0.9-0.8,1.6-0.2c8.7,8.8,17.5,17.6,26.1,26.5c10.8,11.1,21.8,22,32.7,33c0.7,0.7,0.6,1-0.1,1.6c-4,3.2-8,6.5-11.9,9.8
	c-5.1,4.2-10.2,8.4-15.2,12.6c-0.8,0.7-1.6,1.4-2.5,2c-1.7,1.1-2.3,2.5-2.4,4.6c-0.1,3-0.7,6.1-1.4,9.1c-0.5,2.3-1.1,4.6-1.8,6.8
	c-0.9,2.9-2.1,5.8-3.4,8.6c-1.4,2.8-3,5.5-4.7,8.1c-1.6,2.4-3.3,4.6-5,6.8c-2.9,3.6-6.3,6.8-9.9,9.7c-3.6,2.8-7.4,5.3-11.5,7.4
	c-2.7,1.4-5.4,2.6-8.2,3.6c-2.1,0.8-4.3,1.3-6.5,1.9c-1.9,0.5-3.8,0.8-5.7,1.4c-1.6,0.5-3.4,0.8-5,1.2c-1.9,0.5-3.7,1-5.5,1.5
	c-1.5,0.4-3,0.9-4.5,1.3c-2,0.5-4,1.3-6,1.9c-1.9,0.6-3.8,1.2-5.7,1.8c-1.8,0.6-3.5,1.3-5.3,1.9c-1.7,0.6-3.4,1.2-5.1,1.9
	c-2.1,0.8-4.2,1.5-6.2,2.4c-2,0.8-4,1.7-6,2.6c-3.2,1.3-6.3,2.8-9.5,4.1c-3,1.3-6,2.8-9,4.1c-2.9,1.3-5.6,2.7-8.5,4
	c-3.8,1.7-7.5,3.7-11.3,5.3c-1.6,0.7-3.3,1.3-5,2c-0.3,0.1-0.7,0.3-1.1-0.2c-0.4-0.5-0.1-1,0.1-1.3c1.4-1.9,3-3.7,4.6-5.5
	c5.9-6.2,12.3-12,18.5-17.9c6.1-5.8,12.2-11.5,18.4-17.3c6.1-5.7,12-11.5,18.2-17.2c5.1-4.7,10.3-9.5,15.2-14.4
	c0.7-0.7,1.4-0.3,1.8,0c2.7,1.6,5.8,1.9,8.7,1.4c5.1-0.9,8.9-3.6,11.4-8.3c1.6-3.1,2-6.5,1.4-9.7c-1-5.4-4.1-9.4-9.4-11.5
	C97.1,91.1,95.2,90.8,93.4,90.8z"/>
</svg>
