<svg xmlns="http://www.w3.org/2000/svg" width="17.982" height="18.273" viewBox="0 0 17.982 18.273">
    <path fill="#93b5d1" d="M8.956 6.775v2.43c.931.211 1.759.557 2.626.8V7.567c-.928-.207-1.763-.553-2.626-.792zm7.969-4.389a10.42 10.42 0 0 1-4.175 1.138c-1.909 0-3.49-1.242-5.9-1.242a6.938 6.938 0 0 0-2.427.428 2 2 0 1 0-3.008.924v13.779a.854.854 0 0 0 .856.856h.571a.854.854 0 0 0 .856-.856v-3.369a9.95 9.95 0 0 1 4.082-.789c1.913 0 3.49 1.242 5.9 1.242a7.457 7.457 0 0 0 4.371-1.46 1.138 1.138 0 0 0 .492-.942V3.421a1.14 1.14 0 0 0-1.619-1.035zm-10.6 9.228a11.242 11.242 0 0 0-2.626.592V9.691a10.209 10.209 0 0 1 2.63-.621zm10.506-4.8a11.383 11.383 0 0 1-2.626.853V10.2a6.633 6.633 0 0 0 2.626-.928v2.516a5.766 5.766 0 0 1-2.626.967V10.2a6.036 6.036 0 0 1-2.626-.2v2.41a20.821 20.821 0 0 0-2.626-.76V9.205a7.932 7.932 0 0 0-2.624-.135v-2.5a12.593 12.593 0 0 0-2.629.748V4.8a10.219 10.219 0 0 1 2.626-.785v2.557a6.07 6.07 0 0 1 2.626.2V4.37a20.315 20.315 0 0 0 2.626.76v2.441a6.8 6.8 0 0 0 2.626.1V5.1a12.626 12.626 0 0 0 2.626-.8z" transform="translate(-.563 .003)"/>
</svg>
