<svg xmlns="http://www.w3.org/2000/svg" width="43" height="36">
    <path fill="#E4F5F2" fill-rule="evenodd" d="M42.21 30.515H31.868c-1.137-1.674-2.983-2.872-5.532-3.571-.086-.024-.157-.043-.212-.06l-.317-.096c-2.037-.613-2.857-1-3.186-1.217-.003-.058-.005-.131-.004-.22.865-1.142 1.525-2.406 2.005-3.513.589-.189 1.014-.602 1.256-1.007 2.768-4.064.744-6.196.164-6.687-.157-2.332-.93-4.269-2.307-5.775-1.111-1.214-2.442-1.934-3.63-2.366C21.529 1.315 26.384.934 27.041.904c-.014.003.067.009.534.021.461-.012.544-.018.531-.021.81.038 7.701.589 7.306 8.602l.029-.084s.28-.39.561-.167c.279.223 1.57 1.448-.506 4.455 0 0-.267.568-.926.111-.449 1.231-1.288 3.16-2.569 4.688-.051.694-.039 1.328.111 1.661.449 1.003 3.701 1.894 4.599 2.173.897.279 5.384 1.114 5.832 5.959l.238 1.811c-.187.139-.381.269-.571.402zM23.132 15.709l.029-.083s.28-.39.561-.167c.279.223 1.57 1.447-.506 4.455 0 0-.267.567-.926.11-.449 1.231-1.288 3.161-2.569 4.688-.051.694-.039 1.329.111 1.662.448 1.003 3.701 1.894 4.599 2.172.897.28 5.384 1.115 5.832 5.96l.193 1.468H.123l.193-1.468c.447-4.845 4.935-5.68 5.832-5.96.897-.278 4.15-1.169 4.598-2.172.151-.333.162-.968.112-1.662-1.281-1.527-2.121-3.457-2.569-4.688-.66.457-.927-.11-.927-.11-2.076-3.008-.785-4.232-.505-4.455.281-.223.56.167.56.167l.029.083c-.396-8.025 6.522-8.566 7.315-8.601-.014.003.067.008.534.02.461-.012.544-.017.531-.02.81.037 7.701.589 7.306 8.601z"/>
</svg>
