<svg xmlns="http://www.w3.org/2000/svg" id="Group_765" width="29.5" height="31.448" data-name="Group 765" viewBox="0 0 29.5 31.448">
    <defs>
        <style>
            .cls-1{fill:#517da2}
        </style>
    </defs>
    <g id="Group_763" data-name="Group 763" transform="translate(5.385 6.213)">
        <path id="Path_649" d="M874.108 157.718l-6.982 6.969a1.275 1.275 0 0 1-.56.326l-5.144 1.425a1.275 1.275 0 0 1-1.56-1.6l1.524-5.017a1.275 1.275 0 0 1 .319-.532l7-6.982a3.824 3.824 0 0 1 5.406 5.408zm-3.853.244l-1.8-1.8-4.721 4.711-.757 2.493 2.588-.717zm2.05-3.849a1.276 1.276 0 0 0-1.8 0l-.246.246 1.8 1.8.247-.246a1.276 1.276 0 0 0 0-1.8zm-6.347-10.187h-14.847v-2.676h14.848zm0 5.1h-14.847v-2.676h14.848zm-4.652 5.1h-10.2v-2.676h10.2z" class="cls-1" data-name="Path 649" transform="translate(-851.111 -141.25)"/>
    </g>
    <g id="Group_764" data-name="Group 764">
        <path id="Path_650" d="M776.9 75.166h-10.29V43.75h25.936v13.658h-2.358v-11.3h-21.22v26.7h7.932z" class="cls-1" data-name="Path 650" transform="translate(-766.61 -43.75)"/>
    </g>
</svg>
