<?xml version="1.0" encoding="utf-8"?>
<!-- Generator: Adobe Illustrator 24.1.1, SVG Export Plug-In . SVG Version: 6.00 Build 0)  -->
<svg version="1.1" id="Layer_1" xmlns="http://www.w3.org/2000/svg" xmlns:xlink="http://www.w3.org/1999/xlink" x="0px" y="0px"
	 viewBox="0 0 70 70" style="enable-background:new 0 0 70 70;" xml:space="preserve">
<style type="text/css">
	.st0{fill:#FFFFFF;}
</style>
<path class="st0" d="M63.86,34.82c1.04-1.14,0.94-2.89-0.22-3.9L38.08,8.55c-1.16-1.02-3.02-0.99-4.15,0.05L8.28,32.11
	c-1.14,1.04-1.19,2.79-0.12,3.9l0.64,0.67c1.07,1.11,2.79,1.24,3.85,0.3l1.92-1.72v25.13c0,1.54,1.25,2.79,2.79,2.79h10
	c1.54,0,2.79-1.25,2.79-2.79V42.8H42.9v17.58c-0.02,1.54,1.08,2.79,2.62,2.79H56.1c1.54,0,2.79-1.25,2.79-2.79V35.61
	c0,0,0.53,0.46,1.18,1.04c0.65,0.57,2.02,0.11,3.06-1.03L63.86,34.82z"/>
</svg>
