<svg xmlns="http://www.w3.org/2000/svg" width="46" height="45">
    <path fill="#3A5B77" fill-rule="evenodd" d="M22.776.988h.091c.052-.005.073 0 .105 0 5.94 0 11.722 2.251 15.985 6.218l4.719-4.563c.217-.216.561-.283.843-.168.292.114.499.391.499.697l-.789 15.587H28.888c-.424 0-.781-.336-.781-.76 0-.272.158-.517.392-.647l4.644-4.5c-2.754-2.539-6.336-3.929-10.287-3.929-8.034.043-14.583 6.347-14.583 14.159.061 7.651 6.595 13.876 14.712 13.932 5.294-.272 10.281-3.284 12.668-8.277l7.524 3.323-.051.1c-5.154 9.541-13.277 13.56-21.99 12.704C9.392 43.97.069 34.553-.011 22.971-.014 10.946 10.2 1.093 22.776.988z"/>
</svg>
