<svg xmlns="http://www.w3.org/2000/svg" width="24.376" height="22.932" viewBox="0 0 24.376 22.932">
    <path d="M1133.746 1090.228h-18.661a2.857 2.857 0 0 0-2.858 2.857v17.215a2.858 2.858 0 0 0 2.858 2.858h18.661a2.858 2.858 0 0 0 2.857-2.858v-17.217a2.857 2.857 0 0 0-2.857-2.855zm-14.282 16.595l-2.985 3.583-1.911-2.119a.843.843 0 0 1 1.252-1.13l.609.676 1.741-2.089a.838.838 0 0 1 .647-.3.843.843 0 0 1 .648 1.383zm0-6.372l-2.985 3.583-1.911-2.119a.843.843 0 0 1 1.252-1.13l.609.676 1.741-2.089a.843.843 0 1 1 1.294 1.079zm0-6.372l-2.985 3.583-1.911-2.119a.843.843 0 0 1 1.252-1.13l.609.676 1.741-2.09a.84.84 0 0 1 .647-.3.842.842 0 0 1 .648 1.383zm13.511 14.7H1122.6a1.012 1.012 0 0 1 0-2.023h10.373a1.012 1.012 0 0 1 0 2.023zm0-6.07H1122.6a1.012 1.012 0 0 1 0-2.023h10.373a1.012 1.012 0 0 1 0 2.023zm0-5.733H1122.6a1.012 1.012 0 1 1 0-2.023h10.373a1.012 1.012 0 1 1 0 2.023z" transform="translate(-1112.227 -1090.228)" style="isolation:isolate" fill="#e4f5f2"/>
</svg>
