<svg xmlns="http://www.w3.org/2000/svg" width="20.85" height="20.85" viewBox="0 0 20.85 20.85">
    <defs>
        <style>
            .cls-1{fill:#fff}
        </style>
    </defs>
    <g id="Icon_ionic-ios-checkmark-circle-outline">
        <path id="Path_1157" d="M2617.025 953.934l-.88-.905a.211.211 0 0 0-.145-.066.207.207 0 0 0-.144.066l-6.118 6.157-2.233-2.231a.2.2 0 0 0-.275-.014l-.014.014-.879.905a.206.206 0 0 0 0 .289l2.81 2.81a.944.944 0 0 0 .592.289.867.867 0 0 0 .577-.276l6.709-6.736a.221.221 0 0 0 0-.302z" class="cls-1" transform="translate(-2601.256 -946.674)"/>
        <path id="Path_1158" d="M2610.867 947.047a9.01 9.01 0 1 1-6.395 2.639 9.022 9.022 0 0 1 6.395-2.639m0-1.391a10.425 10.425 0 1 0 10.425 10.425 10.426 10.426 0 0 0-10.425-10.425z" class="cls-1" transform="translate(-2600.442 -945.655)"/>
    </g>
</svg>
