<?xml version="1.0" encoding="utf-8"?>
<!-- Generator: Adobe Illustrator 24.1.1, SVG Export Plug-In . SVG Version: 6.00 Build 0)  -->
<svg version="1.1" id="Isolation_Mode" xmlns="http://www.w3.org/2000/svg" xmlns:xlink="http://www.w3.org/1999/xlink" x="0px"
	 y="0px" viewBox="0 0 110.5 150.8" style="enable-background:new 0 0 110.5 150.8;" xml:space="preserve">
<style type="text/css">
	.st0{fill:#C8E0ED;}
	.st1{fill:#009E87;}
</style>
<g>
	<path class="st0" d="M46.8,120.1v27.4h15V118c-4.3,1.4-8.8,2.1-13.5,2.1C47.8,120.1,47.3,120.1,46.8,120.1z M4.2,3.8v15.3h42.6
		v50.7h17.9V19.1h42.6V3.8H4.2z M83.2,74.7H46.8v33.1c0.5,0,1,0,1.5,0c4.8,0,9.4-1.1,13.5-3V89.1h0V88h18.5c4.6,0,8.2,1.3,10.9,3.9
		c2.4,2.4,3.7,5.3,3.7,8.7c0,3.5-1.2,6.4-3.7,8.9c-2.6,2.6-6,4-10.2,4.1c-0.1,0-0.9,0-1.2,0c-3.9,3.3-8.3,6-13.1,7.9v5.4h15.8
		c7.9,0,14-2.7,18.6-8c4.1-4.8,6.1-10.7,6.1-17.7c0-7-2-13.1-6.1-18.2C96.6,77.4,90.6,74.7,83.2,74.7z"/>
	<g>
		<g>
			<path class="st1" d="M83.7,51.1C79.1,44,72.5,38.4,64.6,34.9V49c1,0.7,1.9,1.4,2.8,2.1H83.7z M61.8,104.8c-4.1,1.9-8.7,3-13.5,3
				c-0.5,0-1,0-1.5,0C29.9,107,16.5,93.1,16.5,76c0-17,13.4-30.9,30.3-31.7V32C23.1,32.8,4.2,52.2,4.2,76c0,23.8,18.9,43.2,42.6,44
				c0.5,0,1,0,1.5,0c4.7,0,9.3-0.7,13.5-2.1c8.9-2.9,16.5-8.4,21.9-15.8H66.2C64.8,103.2,63.3,104,61.8,104.8z"/>
		</g>
	</g>
</g>
</svg>
