<svg xmlns="http://www.w3.org/2000/svg" width="17.875" height="19.445" viewBox="0 0 17.875 19.445">
    <g fill="#93b5d1">
        <path d="M2.527 9.029a1.021 1.021 0 0 0-.646.646L0 15.318l.15.15L3.114 12.5a.982.982 0 0 1-.05-.249 1.021 1.021 0 1 1 1.021 1.021.982.982 0 0 1-.249-.05L.872 16.19l.149.149 5.643-1.881a1.021 1.021 0 0 0 .646-.646l1.055-2.682L5.21 7.974zM11.784.9L5.94 7.27l3.123 3.123 6.366-5.844c2.71-2.395-1.268-6.334-3.645-3.649z" transform="translate(1.5) rotate(-90 8.188 8.151)"/>
        <path stroke="#93b5d1" stroke-linecap="round" stroke-width="3px" d="M0 0h14.769" transform="translate(1.5) translate(0 17.945)"/>
    </g>
</svg>
